<svg data-v-0dd9719b="" version="1.0" xmlns="http://www.w3.org/2000/svg" xmlns:xlink="http://www.w3.org/1999/xlink" width="100%" height="100%" viewBox="0 0 340.000000 250.000000" preserveAspectRatio="xMidYMid meet" color-interpolation-filters="sRGB" style="margin: auto;"> <rect data-v-0dd9719b="" x="0" y="0" width="100%" height="100%" fill="#fff" fill-opacity="1" class="background"></rect> <rect data-v-0dd9719b="" x="0" y="0" width="100%" height="100%" fill="url(#watermark)" fill-opacity="1" class="watermarklayer"></rect> <g data-v-0dd9719b="" fill="#333" class="icon-text-wrapper icon-svg-group iconsvg" transform="translate(49.43499755859375,91.58758926391602)"><g class="iconsvg-imagesvg" transform="translate(0,0)"><g><rect fill="#333" fill-opacity="0" stroke-width="2" x="0" y="0" width="60" height="66.82481873767918" class="image-rect"></rect> <svg x="0" y="0" width="60" height="66.82481873767918" filtersec="colorsb6199596219" class="image-svg-svg primary" style="overflow: visible;"><svg xmlns="http://www.w3.org/2000/svg" viewBox="0 -0.0028373277746140957 89.81000518798828 100.02556610107422"><title>资源 134</title><path d="M64.35 47.87c-.58 0-1.17 0-1.74.05.34.73.66 1.46 1 2.2a64.86 64.86 0 0 1 5.14 25.46 65.77 65.77 0 0 1-1.34 13.26L84.44 79a11.89 11.89 0 0 0 5.37-9.28v-10a33.48 33.48 0 0 0-25.46-11.85zM21.49 69a9.3 9.3 0 0 1 9.3-9.31 9.07 9.07 0 0 1 1.66.15 39.44 39.44 0 0 1 4.73-5.73 38.15 38.15 0 0 1 15.09-9.32 58 58 0 0 0-41.94-26.64L5.38 21A11.9 11.9 0 0 0 0 30.28v39.44A11.9 11.9 0 0 0 5.38 79l22 12.68a38.86 38.86 0 0 1-1.19-14.63 9.3 9.3 0 0 1-4.7-8.05z" fill="#275cde"></path><path d="M84.44 21L50.28 1.28a11.86 11.86 0 0 0-10.73 0L20.29 12.4a64 64 0 0 1 8.49 2.92 65.23 65.23 0 0 1 20.79 14 65.61 65.61 0 0 1 10.52 13.76 37.62 37.62 0 0 1 4.26-.24 38.33 38.33 0 0 1 25.46 9.64v-22.2A11.92 11.92 0 0 0 84.44 21z" fill="#0a2183"></path><path d="M37 62.08a9.31 9.31 0 0 1-5.95 16.2c-.08 1-.13 2-.13 3a33.2 33.2 0 0 0 3.26 14.39l5.33 3.07a11.84 11.84 0 0 0 10.72 0l7.87-4.54a57.76 57.76 0 0 0-3.27-44.94A33.46 33.46 0 0 0 37 62.08z" fill="#01cfff"></path></svg></svg> <!----></g></g> <g transform="translate(67,7.182411193847656)"><g data-gra="path-name" fill-rule="" class="tp-name iconsvg-namesvg"><g transform="scale(1)"><g><path d="M28.41 5.66Q25.74 5.66 22.39 4.49 19.05 3.31 13.85 1.1L13.85 1.1 10.72-0.26Q7.21 3.45 3.19 3.45L3.19 3.45Q1.04 3.45-0.65 2.47-2.34 1.5-3.25 0.1-4.16-1.3-4.16-2.6L-4.16-2.6Q-4.16-4.03-2.89-4.94-1.63-5.85 1.17-5.85L1.17-5.85Q4.36-5.85 9.36-4.55L9.36-4.55Q10.86-7.28 12.25-11.05 13.65-14.82 15.47-20.61L15.47-20.61 17.09-25.61Q13.91-26.65 12.12-28.6 10.34-30.55 10.34-32.7L10.34-32.7Q10.34-34.77 11.86-36.53 13.39-38.29 15.79-38.29L15.79-38.29Q14.5-36.59 14.5-33.87L14.5-33.87Q14.5-31.85 15.44-30.32 16.38-28.8 17.88-27.89L17.88-27.89Q20.8-36.73 24.12-41.76 27.43-46.8 32.24-46.8L32.24-46.8Q34.97-46.8 37.21-45.14 39.45-43.48 39.45-39.78L39.45-39.78Q39.45-36.47 37.6-32.99 35.75-29.51 31.85-27.11 27.95-24.7 22.16-24.7L22.16-24.7Q19.82-17.62 17.75-12.42 15.67-7.21 13.26-3.51L13.26-3.51Q19.11-1.76 23.24-0.75 27.37 0.26 30.48 0.26L30.48 0.26Q31.98 0.26 33.31-0.07 34.65-0.39 36.2-1.17L36.2-1.17Q34.91 2.41 33.02 4.03 31.14 5.66 28.41 5.66L28.41 5.66ZM22.88-26.85Q26.39-27.11 29.12-29.61 31.85-32.11 33.38-35.46 34.91-38.8 34.91-41.34L34.91-41.34Q34.91-44.27 32.76-44.27L32.76-44.27Q30.16-44.27 27.95-39.88 25.74-35.49 22.88-26.85L22.88-26.85ZM2.54 1.04Q4.03 1.04 5.04 0.42 6.04-0.2 7.35-1.56L7.35-1.56Q2.73-3.25 0.52-3.25L0.52-3.25Q-0.65-3.25-1.24-2.83-1.82-2.41-1.82-1.69L-1.82-1.69Q-1.82-0.58-0.52 0.23 0.78 1.04 2.54 1.04L2.54 1.04ZM39.32 5.66Q40.1 3.31 46.86-10.92L46.86-10.92Q56.81-32.5 60.19-39.91L60.19-39.91Q60.77-41.21 60.77-42.05L60.77-42.05Q60.77-43.48 58.89-43.48L58.89-43.48Q56.36-43.48 54.6-41.89 52.84-40.3 51.97-37.9 51.09-35.49 51.09-33.02L51.09-33.02Q51.09-31.66 51.35-29.9L51.35-29.9Q49.2-29.9 47.97-31.75 46.73-33.61 46.73-35.81L46.73-35.81Q46.73-38.48 48.75-41.05 50.77-43.62 53.92-45.21 57.07-46.8 60.13-46.8L60.13-46.8Q62.66-46.8 64.32-45.4 65.97-44.01 66.85-40.5 67.73-36.98 67.73-30.68L67.73-30.68Q67.73-26.13 67.02-16.57L67.02-16.57Q66.5-9.55 66.5-7.61L66.5-7.61Q68.44-13.46 72.02-20.67 75.59-27.89 79.14-34.03 82.68-40.17 84.69-43.16L84.69-43.16Q85.73-44.79 86.45-45.4 87.16-46.02 88.27-46.02L88.27-46.02Q89.18-46.02 91.13-45.3L91.13-45.3Q89.83-42.51 87.75-33.93 85.67-25.35 84.14-15.89 82.62-6.44 82.62-0.65L82.62-0.65Q82.62 1.36 82.81 2.34 83 3.31 83.36 4.26 83.72 5.2 83.91 5.66L83.91 5.66Q81.12 5.66 79.69 4.84 78.26 4.03 77.74 2.24 77.22 0.46 77.22-2.79L77.22-2.79Q77.22-9.29 78.62-16.57 80.02-23.86 82.75-34.38L82.75-34.38Q78.65-28.54 73.78-17.81 68.9-7.08 66.56-0.2L66.56-0.2 66.11-0.07Q65.65 0.13 65.19 0.13L65.19 0.13Q63.05 0.13 62.37-2.34 61.69-4.81 61.69-10.21L61.69-10.21Q61.69-13.52 61.95-21.32L61.95-21.32Q62.2-29.51 62.2-33.28L62.2-33.28 62.14-37.12 55.45-21.39Q50.63-9.95 48.26-4.78 45.89 0.39 43.78 3.02 41.66 5.66 39.32 5.66L39.32 5.66ZM105.43 5.66Q99.19 5.66 99.06 0.65L99.06 0.65Q99.06-1.04 99.68-3.35 100.3-5.66 101.33-8.91L101.33-8.91Q103.48-15.41 105.92-21.48 108.35-27.56 111.93-36.01L111.93-36.01 114.27-41.54Q107.83-41.47 103.77-41.11 99.71-40.76 95.22-39.98L95.22-39.98Q95.61-43.81 100.03-45.3 104.45-46.8 112.45-46.8L112.45-46.8Q117.72-46.8 125.52-46.02L125.52-46.02Q132.34-45.37 135.53-45.37L135.53-45.37Q132.93-42.9 128.6-42.22 124.28-41.54 118.23-41.54L118.23-41.54Q112.91-28.41 107.7-9.29L107.7-9.29Q106.21-3.77 105.72-1.36 105.23 1.04 105.23 3.77L105.23 3.77Q105.23 4.68 105.43 5.66L105.43 5.66ZM137.8 5.66Q135.2 5.66 133.28 4.97 131.36 4.29 129.94 2.41L129.94 2.41Q130.26-0.46 132.5-8.19 134.75-15.93 137.38-24.05 140.01-32.18 141.05-34.91L141.05-34.91Q141.83-36.98 143.23-39.1 144.63-41.21 146.57-41.21L146.57-41.21Q147.68-41.21 149.04-40.3L149.04-40.3Q145.14-31.39 141.21-19.05 137.28-6.7 135.2 2.86L135.2 2.86Q136.3 3.25 138.45 3.25L138.45 3.25Q145.14 3.25 151.09-1.92 157.04-7.08 160.62-14.72 164.19-22.36 164.19-29.25L164.19-29.25Q164.19-36.79 160.42-40.46 156.65-44.13 150.34-44.13L150.34-44.13Q146.12-44.13 142.74-42.61 139.36-41.08 137.44-38.41 135.52-35.75 135.52-32.44L135.52-32.44Q135.52-30.68 136.11-29.32L136.11-29.32Q133.44-29.32 132.18-30.45 130.91-31.59 130.91-33.48L130.91-33.48Q130.91-36.53 133.83-39.65 136.76-42.77 141.73-44.79 146.7-46.8 152.49-46.8L152.49-46.8Q161.46-46.8 165.72-41.8 169.97-36.79 169.97-28.6L169.97-28.6Q169.97-19.57 165.29-11.67 160.62-3.77 153.14 0.94 145.66 5.66 137.8 5.66L137.8 5.66Z" transform="translate(4.159999847412109, 46.79999923706055)"></path></g> <!----> <!----> <!----> <!----> <!----> <!----> <!----></g></g> <!----></g></g><defs v-gra="od"></defs></svg>